
<svg xmlns="http://www.w3.org/2000/svg" width="512" height="512" viewBox="0 0 512 512" version="1.1"><path d="M 325 332.449 L 325 354.899 354.577 354.938 C 370.845 354.960, 384.570 355.234, 385.077 355.548 C 385.585 355.861, 386 355.732, 386 355.260 C 386 354.788, 387.614 354.590, 389.588 354.820 C 393.872 355.321, 394.803 357.605, 379.173 329.250 L 368.562 310 346.781 310 L 325 310 325 332.449 M 403 332.442 L 403 354.885 424.500 354.880 L 446 354.875 446 332.438 L 446 310 424.500 310 L 403 310 403 332.442" stroke="none" fill="#85459c" fill-rule="evenodd"/><path d="M 0 256.002 L 0 512.004 256.250 511.752 L 512.500 511.500 512.752 255.750 L 513.004 0 256.502 0 L 0 0 0 256.002 M 0.492 256.500 C 0.492 397.300, 0.608 454.751, 0.750 384.170 C 0.892 313.588, 0.892 198.388, 0.750 128.170 C 0.608 57.951, 0.492 115.700, 0.492 256.500 M 325 332.449 L 325 354.899 354.577 354.938 C 370.845 354.960, 384.570 355.234, 385.077 355.548 C 385.585 355.861, 386 355.732, 386 355.260 C 386 354.788, 387.614 354.590, 389.588 354.820 C 393.872 355.321, 394.803 357.605, 379.173 329.250 L 368.562 310 346.781 310 L 325 310 325 332.449 M 403 332.442 L 403 354.885 424.500 354.880 L 446 354.875 446 332.438 L 446 310 424.500 310 L 403 310 403 332.442" stroke="none" fill="#2c2b2c" fill-rule="evenodd"/></svg>